<?xml version="1.0" encoding="UTF-8"?>
<svg version="1.1" xmlns="http://www.w3.org/2000/svg" width="295" height="295">
<path d="M0 0 C4.46854525 3.51756382 8.97422824 6.93536864 13.63183594 10.19799805 C22.4242257 16.36646029 30.89841492 22.9585359 39.41992188 29.49291992 C42.37313839 31.74539357 45.34669922 33.96969033 48.32763672 36.18530273 C49.81933594 37.32299805 49.81933594 37.32299805 50.81933594 38.32299805 C51.19433594 41.13549805 51.19433594 41.13549805 50.81933594 44.32299805 C46.70517785 49.61262987 40.02375808 49.51885772 33.81933594 50.32299805 C31.79774729 50.63057395 29.77691635 50.94316741 27.75683594 51.26049805 C26.67660156 51.42549805 25.59636719 51.59049805 24.48339844 51.76049805 C13.77253526 53.40480967 3.07018609 55.1005175 -7.61816406 56.88549805 C-8.75306274 57.07486938 -8.75306274 57.07486938 -9.91088867 57.26806641 C-13.00900095 57.78652045 -16.10582364 58.3099276 -19.20019531 58.8503418 C-25.82009064 59.99627504 -32.46108751 60.9242649 -39.11816406 61.82299805 C-70.21641898 64.77406969 -70.21641898 64.77406969 -95.02050781 81.72924805 C-102.03734903 91.94599845 -103.25592082 101.15512567 -101.18066406 113.32299805 C-99.44529908 119.30219398 -96.79953477 124.25657906 -93.18066406 129.32299805 C-92.68566406 130.43674805 -92.68566406 130.43674805 -92.18066406 131.57299805 C-90.8592608 133.88545376 -89.58970641 134.19005283 -87.18066406 135.32299805 C-86.26671875 135.80897461 -85.35277344 136.29495117 -84.41113281 136.7956543 C-72.88300782 142.81869264 -61.20531976 144.09860227 -48.52832031 140.58862305 C-35.98105454 137.23424682 -21.75445799 135.80746106 -9.77050781 141.69018555 C-5.43447369 144.42391445 -1.7693969 147.68092947 1.81933594 151.32299805 C2.39554688 151.89791992 2.97175781 152.4728418 3.56542969 153.06518555 C3.97921875 153.48026367 4.39300781 153.8953418 4.81933594 154.32299805 C4.96628906 153.1628418 4.96628906 153.1628418 5.11621094 151.97924805 C7.24594629 137.14453976 7.24594629 137.14453976 12.47167969 133.01831055 C22.7075455 127.28287653 36.73619113 127.31233688 48.19433594 125.76049805 C50.63700395 125.42867938 53.07956433 125.09612855 55.5218811 124.76173401 C57.02978455 124.55535917 58.53789252 124.35047123 60.04623413 124.14732361 C63.66775569 123.65251635 67.23820659 123.0499542 70.81933594 122.32299805 C73.7683219 122.24738302 75.86360003 122.65557381 78.81933594 123.32299805 C80.88183594 125.57299805 80.88183594 125.57299805 81.81933594 128.32299805 C81.68504993 131.1430041 81.33000561 132.68111879 79.56982422 134.89355469 C77.37592419 136.68508672 75.71214486 137.03370185 72.93652344 137.5690918 C71.94555664 137.76438477 70.95458984 137.95967773 69.93359375 138.16088867 C68.33016113 138.45769531 68.33016113 138.45769531 66.69433594 138.76049805 C65.59444336 138.97512695 64.49455078 139.18975586 63.36132812 139.41088867 C57.51743755 140.52890804 51.67032448 141.51636578 45.78027344 142.3581543 C44.65508301 142.5219458 43.52989258 142.6857373 42.37060547 142.85449219 C40.21021701 143.16108777 38.04704475 143.44880766 35.88134766 143.71533203 C31.23703718 144.36930506 28.46016586 144.84454323 24.64355469 147.6940918 C22.8317203 150.30515077 22.19675666 151.28691279 22.38183594 154.38549805 C22.42179688 155.15635742 22.46175781 155.9272168 22.50292969 156.72143555 C22.86267943 159.67937791 23.39568089 162.58191549 23.94433594 165.51049805 C24.75113787 170.04011459 25.16575163 173.16344295 22.81933594 177.32299805 C20.49079726 179.82402107 18.76413648 180.33833123 15.44433594 181.26049805 C10.85422464 181.3396379 9.43308729 180.07589398 5.81933594 177.32299805 C4.20579554 175.59854325 2.64345684 173.82495642 1.13183594 172.01049805 C-7.01583136 162.86116851 -16.47695465 156.9896252 -28.80175781 156.0456543 C-36.46018364 155.77098502 -43.44829245 156.64159754 -50.95947266 158.24194336 C-66.79543226 161.40990607 -84.40642606 160.3728404 -98.18066406 151.32299805 C-110.39158734 141.85628492 -118.15799294 129.69956366 -126.16308594 116.69604492 C-133.57825715 104.73865551 -141.79001375 93.32186445 -150.46289062 82.25 C-163.0476331 66.15204139 -171.81498115 51.44340354 -170.18066406 30.32299805 C-167.86778517 19.54908117 -159.94770823 9.7067591 -151.25488281 3.23706055 C-135.84785867 -6.35562285 -120.0520428 -9.3607793 -102.18066406 -10.67700195 C-98.06528943 -11.08166773 -93.9659057 -11.56482458 -89.87207031 -12.1496582 C-80.92313875 -13.38620453 -72.07834981 -13.96800354 -63.05029297 -14.27807617 C-56.30453411 -14.52849619 -49.64118062 -15.08282394 -42.93066406 -15.80200195 C-23.54044352 -17.73906378 -14.86405796 -11.70276399 0 0 Z " fill="#09AEFD" transform="translate(194.1806640625,60.677001953125)"/>
<path d="M0 0 C7.8168235 7.9107757 12.32358948 21.55948424 13.3125 32.4375 C12.92670423 36.83557183 12.13279772 41.09252357 10 45 C-3.25394286 54.15008441 -30.09019808 52.99260237 -45.6875 55 C-50.81434787 55.66846656 -55.90934007 56.46772152 -61.00976562 57.30932617 C-75.04661079 59.62298083 -89.12020809 61.52110348 -103.22875977 63.3371582 C-104.02917694 63.44037384 -104.82959412 63.54358948 -105.65426636 63.64993286 C-107.15770955 63.84336372 -108.66130146 64.03564365 -110.16506958 64.22653198 C-114.12697924 64.73455932 -118.06225691 65.33183983 -122 66 C-132.20349968 67.169151 -132.20349968 67.169151 -135.96875 64.71875 C-137.587884 62.90135469 -138.7980173 61.11548955 -140 59 C-140.38671875 58.34 -140.7734375 57.68 -141.171875 57 C-145.75805826 48.49229772 -148.86291195 36.95137387 -146.30264282 27.39784241 C-145 25 -145 25 -142.81234741 23.93553162 C-141.92084991 23.7356514 -141.02935242 23.53577118 -140.11083984 23.32983398 C-139.11848328 23.09988739 -138.12612671 22.8699408 -137.10369873 22.63302612 C-136.07947815 22.4241275 -135.05525757 22.21522888 -134 22 C-132.59877899 21.70635056 -132.59877899 21.70635056 -131.16925049 21.4067688 C-128.19380808 20.81114785 -125.21279802 20.26149016 -122.2265625 19.72265625 C-120.53151833 19.41118904 -120.53151833 19.41118904 -118.80223083 19.09342957 C-115.07746225 18.41098001 -111.35136235 17.73618928 -107.625 17.0625 C-105.67019631 16.70723452 -103.71539279 16.3519681 -101.76060581 15.99661064 C-93.27111317 14.45434901 -84.77851372 12.9295923 -76.28507233 11.40924835 C-73.95677743 10.99225899 -71.62861334 10.57454573 -69.30047607 10.15667725 C-59.76722655 8.44626057 -50.23173937 6.74906898 -40.69329834 5.06784058 C-37.60997558 4.52417617 -34.52739861 3.97653981 -31.44537354 3.42556763 C-27.802373 2.77470332 -24.15788885 2.13290113 -20.51207161 1.49801064 C-18.52500602 1.14979874 -16.53950551 0.79269264 -14.55406189 0.43534851 C-12.76978539 0.1275219 -12.76978539 0.1275219 -10.94946289 -0.18652344 C-9.91576065 -0.36874451 -8.88205841 -0.55096558 -7.81703186 -0.7387085 C-4.92100505 -1.00732711 -2.78360048 -0.81599096 0 0 Z " fill="#A5A5A6" transform="translate(255,123)"/>
<path d="M0 0 C1.84816818 0.03465363 1.84816818 0.03465363 3.7336731 0.07000732 C39.30908849 0.76969616 39.30908849 0.76969616 45.0625 2.6875 C44.7325 4.0075 44.4025 5.3275 44.0625 6.6875 C36.73725944 7.54310874 29.47265484 7.90057176 22.1015625 8.0390625 C20.96912613 8.06266846 19.83668976 8.08627441 18.66993713 8.1105957 C15.00920912 8.18383495 11.34841295 8.24921544 7.6875 8.3125 C5.81766953 8.34618683 5.81766953 8.34618683 3.9100647 8.3805542 C-11.65160698 8.65178758 -27.19163431 8.78597301 -42.75 8.3125 C-43.46573181 8.29117004 -44.18146362 8.26984009 -44.91888428 8.24786377 C-52.95519731 7.99538837 -60.94076713 7.52794422 -68.9375 6.6875 C-69.2675 5.3675 -69.5975 4.0475 -69.9375 2.6875 C-64.96003646 0.19876823 -57.92206119 0.87597646 -52.375 0.5625 C-51.56715057 0.51636566 -50.75930115 0.47023132 -49.92697144 0.42269897 C-33.27807527 -0.48082012 -16.66465669 -0.32049222 0 0 Z " fill="#051F34" transform="translate(221.9375,247.3125)"/>
<path d="M0 0 C2.25 2.25 2.25 2.25 3 5 C2.8125 7.75 2.8125 7.75 2 10 C1.34 10.33 0.68 10.66 0 11 C0.03255208 8.94921875 0.06510417 6.8984375 0.09765625 4.84765625 C0.20561184 2.98267859 0.20561184 2.98267859 -1 2 C-2.810285 1.90120435 -4.62452727 1.87028486 -6.4375 1.875 C-7.42621094 1.87242187 -8.41492188 1.86984375 -9.43359375 1.8671875 C-11.98909076 1.82771585 -11.98909076 1.82771585 -14 3 C-16.59143905 3.31045526 -19.18371732 3.50973912 -21.78515625 3.71875 C-23.97070668 3.7665741 -23.97070668 3.7665741 -25 5 C-27.77558423 5.28479122 -30.55127845 5.44843019 -33.3359375 5.62109375 C-36.22178086 5.83584594 -36.22178086 5.83584594 -39 8 C-39 7.34 -39 6.68 -39 6 C-39.99 6.495 -39.99 6.495 -41 7 C-42.54023996 7.06950541 -44.08334988 7.08452357 -45.625 7.0625 C-46.85089844 7.04896484 -46.85089844 7.04896484 -48.1015625 7.03515625 C-49.04128906 7.01775391 -49.04128906 7.01775391 -50 7 C-49.67 6.34 -49.34 5.68 -49 5 C-46.35099464 4.47577538 -43.77257937 4.07669052 -41.09765625 3.74609375 C-40.30475693 3.64031509 -39.5118576 3.53453644 -38.69493103 3.42555237 C-36.15183415 3.08758906 -33.60735569 2.76193133 -31.0625 2.4375 C-28.52151366 2.10761083 -25.98091299 1.77513815 -23.44078064 1.43873596 C-21.85764485 1.22969636 -20.27395829 1.02477963 -18.68971252 0.82432556 C-4.59284668 -1.0144563 -4.59284668 -1.0144563 0 0 Z " fill="#2D9DD9" transform="translate(273,184)"/>
<path d="M0 0 C0 2.83967231 -0.40267181 5.23735711 -1 8 C-1.99 8.33 -2.98 8.66 -4 9 C-8.68976121 17.37457358 -7.29499958 27.99088609 -5.359375 36.97265625 C-4.29648397 40.72104322 -2.99599751 44.00800499 -1.25 47.5 C-0.8375 48.325 -0.425 49.15 0 50 C-0.33 50.66 -0.66 51.32 -1 52 C-2.15341698 49.77447742 -3.29781159 47.54504031 -4.4375 45.3125 C-4.76298828 44.68666016 -5.08847656 44.06082031 -5.42382812 43.41601562 C-9.91035361 34.58172318 -10.57834453 23.63934057 -8.28125 13.9765625 C-6.28405467 8.74197797 -3.44178095 4.39783121 0 0 Z " fill="#299DDF" transform="translate(33,74)"/>
<path d="M0 0 C1.20785156 -0.02900391 2.41570312 -0.05800781 3.66015625 -0.08789062 C11.02826251 -0.14000454 16.58828246 0.56066991 23 4.3125 C23 4.9725 23 5.6325 23 6.3125 C22.40832031 6.10753906 21.81664062 5.90257812 21.20703125 5.69140625 C20.41683594 5.42199219 19.62664062 5.15257812 18.8125 4.875 C18.03519531 4.60816406 17.25789063 4.34132812 16.45703125 4.06640625 C11.38730907 2.51083172 6.59937297 2.12000177 1.3125 2.125 C0.60496582 2.12435547 -0.10256836 2.12371094 -0.83154297 2.12304688 C-5.6970846 2.17186873 -10.19547062 2.72974126 -14.9375 3.8671875 C-17.64651046 4.45208749 -20.2410152 4.45770973 -23 4.3125 C-22.67 3.6525 -22.34 2.9925 -22 2.3125 C-20.1875 1.93359375 -20.1875 1.93359375 -18 1.75 C-11.94410551 1.22010923 -6.53226915 0.05098025 0 0 Z " fill="#25A2E4" transform="translate(160,214.6875)"/>
<path d="M0 0 C1.15242188 0.01804687 2.30484375 0.03609375 3.4921875 0.0546875 C4.36101562 0.07789062 5.22984375 0.10109375 6.125 0.125 C-1.20833333 3.79166667 -8.54166667 7.45833333 -15.875 11.125 C-14 4.375 -14 4.375 -12.875 2.125 C-8.47765424 0.25906397 -4.7454797 -0.09684652 0 0 Z " fill="#1EA5EA" transform="translate(118.875,125.875)"/>
<path d="M0 0 C2.46800047 1.15173355 4.04783565 2.04783565 6 4 C6.4375 6.875 6.4375 6.875 6 10 C2.53678689 14.15585573 -1.71273844 14.87782152 -6.79296875 15.8984375 C-7.88544922 15.94871094 -7.88544922 15.94871094 -9 16 C-9.66 15.34 -10.32 14.68 -11 14 C-7.37 13.01 -3.74 12.02 0 11 C0.66 8.36 1.32 5.72 2 3 C1.01 2.34 0.02 1.68 -1 1 C-0.67 0.67 -0.34 0.34 0 0 Z " fill="#21A3E5" transform="translate(239,95)"/>
<path d="M0 0 C0.98484375 0.00902344 1.9696875 0.01804688 2.984375 0.02734375 C4.10585937 0.04474609 4.10585937 0.04474609 5.25 0.0625 C2.29496433 1.73273755 -0.06316601 2.36286166 -3.4375 2.625 C-6.39181288 2.65756307 -6.39181288 2.65756307 -8.75 4.0625 C-10.09267413 4.14881874 -11.43974322 4.16956473 -12.78515625 4.16015625 C-13.59404297 4.15693359 -14.40292969 4.15371094 -15.23632812 4.15039062 C-16.08646484 4.14201172 -16.93660156 4.13363281 -17.8125 4.125 C-18.66650391 4.12048828 -19.52050781 4.11597656 -20.40039062 4.11132812 C-22.51695663 4.09950373 -24.63348685 4.08156769 -26.75 4.0625 C-26.75 3.4025 -26.75 2.7425 -26.75 2.0625 C-25.56921875 2.00191406 -24.3884375 1.94132812 -23.171875 1.87890625 C-21.6145723 1.79447418 -20.05728121 1.70982751 -18.5 1.625 C-17.72269531 1.58568359 -16.94539063 1.54636719 -16.14453125 1.50585938 C-15.39042969 1.46396484 -14.63632813 1.42207031 -13.859375 1.37890625 C-13.16811523 1.34224854 -12.47685547 1.30559082 -11.76464844 1.26782227 C-7.70183732 0.85376214 -4.16135323 -0.04953992 0 0 Z " fill="#279FE3" transform="translate(122.75,46.9375)"/>
<path d="M0 0 C-3.71834063 2.29265562 -7.62394666 2.64919403 -11.875 3.125 C-12.56980469 3.21136719 -13.26460937 3.29773438 -13.98046875 3.38671875 C-18.00829088 3.86459595 -21.94565712 4.08896677 -26 4 C-24.67360514 1.34721029 -23.65504767 1.25294517 -20.875 0.3125 C-13.88962711 -1.71813165 -7.13795229 -0.78993339 0 0 Z " fill="#22A9EA" transform="translate(170,119)"/>
<path d="M0 0 C0.598125 0.33 1.19625 0.66 1.8125 1 C4.05386471 2.20787988 4.05386471 2.20787988 7 2 C6.67 4.31 6.34 6.62 6 9 C6.99 9.33 7.98 9.66 9 10 C9.69937532 11.31647119 10.36729133 12.65022151 11 14 C11.66 14.33 12.32 14.66 13 15 C13 16.65 13 18.3 13 20 C9.36428659 16.6811607 6.86067641 12.99935849 4.25 8.875 C3.83878906 8.24207031 3.42757812 7.60914063 3.00390625 6.95703125 C0 2.25656665 0 2.25656665 0 0 Z " fill="#20A4E9" transform="translate(67,174)"/>
<path d="M0 0 C0.33 0 0.66 0 1 0 C1.13277344 1.03640625 1.26554688 2.0728125 1.40234375 3.140625 C1.58060639 4.51043265 1.75899862 5.88022344 1.9375 7.25 C2.02451172 7.93191406 2.11152344 8.61382812 2.20117188 9.31640625 C2.6315938 12.60036611 3.08794131 15.81190294 4 19 C1.20127563 16.47211993 -0.45773019 14.79588866 -1 11 C-1.66 11 -2.32 11 -3 11 C-3.39253254 6.55129785 -2.15305957 3.85756507 0 0 Z " fill="#1EA5EE" transform="translate(215,212)"/>
<path d="M0 0 C-6.1583032 4.10553546 -14.71942502 4.33093523 -22 4 C-22 3.34 -22 2.68 -22 2 C-20.89591797 1.80083984 -20.89591797 1.80083984 -19.76953125 1.59765625 C-18.30580078 1.33275391 -18.30580078 1.33275391 -16.8125 1.0625 C-15.36810547 0.80146484 -15.36810547 0.80146484 -13.89453125 0.53515625 C-12.03785906 0.19188487 -10.18641483 -0.18186021 -8.34375 -0.59375 C-5.37300241 -1.10867958 -2.93044984 -0.61334997 0 0 Z " fill="#22A2E8" transform="translate(92,51)"/>
<path d="M0 0 C0.72703125 0.144375 1.4540625 0.28875 2.203125 0.4375 C9.55348796 1.79449009 16.53387397 2.23828062 24 2 C24 2.66 24 3.32 24 4 C20.75030231 4.11638036 17.5011417 4.18730581 14.25 4.25 C13.32960938 4.28351563 12.40921875 4.31703125 11.4609375 4.3515625 C4.59101089 4.45112665 4.59101089 4.45112665 1.359375 1.984375 C0.68648438 1.00210938 0.68648438 1.00210938 0 0 Z " fill="#2D9EE1" transform="translate(114,201)"/>
<path d="M0 0 C3.92297846 0.56340648 6.49080356 1.70090379 9.75 3.9375 C10.52859375 4.46214844 11.3071875 4.98679688 12.109375 5.52734375 C14 7 14 7 15 9 C13.6078125 8.7215625 13.6078125 8.7215625 12.1875 8.4375 C8.98656229 7.75876119 8.98656229 7.75876119 6 9 C5.34 8.67 4.68 8.34 4 8 C4 7.34 4 6.68 4 6 C4.66 6 5.32 6 6 6 C6 5.01 6 4.02 6 3 C4.02 2.34 2.04 1.68 0 1 C0 0.67 0 0.34 0 0 Z " fill="#1DA6E9" transform="translate(178,201)"/>
<path d="M0 0 C-0.33 0.66 -0.66 1.32 -1 2 C-3.3984375 2.34375 -3.3984375 2.34375 -6.375 2.5 C-10.25229715 2.70460671 -11.69213984 2.79475989 -15 5 C-15 4.34 -15 3.68 -15 3 C-15.99 3.495 -15.99 3.495 -17 4 C-18.54023996 4.06950541 -20.08334988 4.08452357 -21.625 4.0625 C-22.85089844 4.04896484 -22.85089844 4.04896484 -24.1015625 4.03515625 C-25.04128906 4.01775391 -25.04128906 4.01775391 -26 4 C-25.67 3.34 -25.34 2.68 -25 2 C-16.83957883 -0.27929005 -8.40093015 -0.24389797 0 0 Z " fill="#1FA5E9" transform="translate(249,187)"/>
<path d="M0 0 C0.33 0 0.66 0 1 0 C1.3125 2.25 1.3125 2.25 1 5 C-1.7682645 8.01992491 -3.68801107 8.92596873 -7.6875 9.875 C-9.3271875 9.936875 -9.3271875 9.936875 -11 10 C-11.66 9.34 -12.32 8.68 -13 8 C-11.68 8 -10.36 8 -9 8 C-8.2884375 7.01 -8.2884375 7.01 -7.5625 6 C-7.046875 5.34 -6.53125 4.68 -6 4 C-3.3125 3.75 -3.3125 3.75 -1 4 C-0.67 2.68 -0.34 1.36 0 0 Z " fill="#1AA0E8" transform="translate(217,232)"/>
<path d="M0 0 C0.33 0.66 0.66 1.32 1 2 C1.66 2 2.32 2 3 2 C2.67 2.66 2.34 3.32 2 4 C-0.43793207 4.48164024 -2.78813018 4.84218633 -5.25 5.125 C-6.25353516 5.25455078 -6.25353516 5.25455078 -7.27734375 5.38671875 C-10.87032177 5.83142919 -14.38037144 6.09820698 -18 6 C-14.93964327 2.93964327 -11.18397483 2.68043881 -7 2 C-5.33333333 2 -3.66666667 2 -2 2 C-1.34 1.34 -0.68 0.68 0 0 Z " fill="#A7A9B1" transform="translate(159,181)"/>
<path d="M0 0 C2.125 0.9375 2.125 0.9375 4 2 C4.33 1.34 4.66 0.68 5 0 C6.65 0.66 8.3 1.32 10 2 C6.68260678 3.10579774 3.52148526 3.60960031 0.0625 4.125 C-1.77634766 4.40730469 -1.77634766 4.40730469 -3.65234375 4.6953125 C-6.54274716 4.95838306 -8.31072406 4.95708567 -11 4 C-10.37351563 3.79503906 -9.74703125 3.59007812 -9.1015625 3.37890625 C-8.28429687 3.10949219 -7.46703125 2.84007812 -6.625 2.5625 C-5.81289062 2.29566406 -5.00078125 2.02882812 -4.1640625 1.75390625 C-1.98968201 1.04820271 -1.98968201 1.04820271 0 0 Z " fill="#AAABB3" transform="translate(209,174)"/>
<path d="M0 0 C0.99 0.33 1.98 0.66 3 1 C2.979375 2.27875 2.95875 3.5575 2.9375 4.875 C2.92941245 9.96207017 3.40979211 14.9516147 4 20 C3.34 19.67 2.68 19.34 2 19 C1.59270772 16.67843403 1.25561323 14.3431213 1 12 C0.67 12 0.34 12 0 12 C0 8.04 0 4.08 0 0 Z " fill="#289FE1" transform="translate(89,158)"/>
<path d="M0 0 C6.45512034 -0.56131481 11.15439723 1.36536213 17 4 C17 4.33 17 4.66 17 5 C10.80481527 4.58411954 5.73310689 3.39748106 0 1 C0 0.67 0 0.34 0 0 Z " fill="#23A4EA" transform="translate(101,214)"/>
<path d="M0 0 C1.7074998 1.28062485 3.37373596 2.61767557 5 4 C5 4.66 5 5.32 5 6 C5.556875 6.2475 6.11375 6.495 6.6875 6.75 C9.39971127 8.21606015 11.63587365 10.02989471 14 12 C11.03 11.67 8.06 11.34 5 11 C4.54625 9.9275 4.0925 8.855 3.625 7.75 C2.49911463 5.11937683 1.32079794 2.53999604 0 0 Z " fill="#22A0DF" transform="translate(98,188)"/>
<path d="M0 0 C0.66 0 1.32 0 2 0 C2.66 1.65 3.32 3.3 4 5 C4.66 5 5.32 5 6 5 C6.33 4.34 6.66 3.68 7 3 C9 5 9 5 9.1953125 6.9453125 C9.13020833 8.96354167 9.06510417 10.98177083 9 13 C4.76568424 9.39299028 2.5307901 4.85413839 0 0 Z " fill="#1DA4E6" transform="translate(58,161)"/>
<path d="M0 0 C1.72863281 0.02707031 1.72863281 0.02707031 3.4921875 0.0546875 C4.36101562 0.07789062 5.22984375 0.10109375 6.125 0.125 C6.125 0.455 6.125 0.785 6.125 1.125 C3.33543818 1.68052302 0.54439514 2.21987359 -2.25 2.75 C-3.0440625 2.90984375 -3.838125 3.0696875 -4.65625 3.234375 C-6.71484452 3.61818076 -8.79530405 3.88008571 -10.875 4.125 C-11.535 3.465 -12.195 2.805 -12.875 2.125 C-8.41165816 0.40206865 -4.77298769 -0.09740791 0 0 Z " fill="#28A2E6" transform="translate(188.875,114.875)"/>
<path d="M0 0 C4.83540096 2.61111652 8.87103901 5.37457083 13 9 C10.53721199 10.231394 8.7204945 10.07159196 6 10 C6 8.68 6 7.36 6 6 C4.02 5.01 2.04 4.02 0 3 C0 2.01 0 1.02 0 0 Z " fill="#1FA3E5" transform="translate(184,54)"/>
<path d="M0 0 C2.475 0.99 2.475 0.99 5 2 C5 2.66 5 3.32 5 4 C5.99 4.33 6.98 4.66 8 5 C8 6.98 8 8.96 8 11 C4.32966073 7.72291137 2.30718811 4.28477792 0 0 Z " fill="#1DA4E9" transform="translate(48,147)"/>
<path d="M0 0 C0.99 0 1.98 0 3 0 C2.38461538 5.53846154 2.38461538 5.53846154 0.4375 7.875 C-0.2740625 8.431875 -0.2740625 8.431875 -1 9 C-1.66 8.67 -2.32 8.34 -3 8 C-1.125 2.25 -1.125 2.25 0 0 Z " fill="#14A7F3" transform="translate(106,128)"/>
<path d="M0 0 C0.53625 0.37125 1.0725 0.7425 1.625 1.125 C-0.685 1.455 -2.995 1.785 -5.375 2.125 C-5.375 2.785 -5.375 3.445 -5.375 4.125 C-7.355 4.125 -9.335 4.125 -11.375 4.125 C-8.46071529 0.56309646 -4.51789288 -1.66448685 0 0 Z " fill="#1E9EE3" transform="translate(218.375,190.875)"/>
<path d="M0 0 C0 3.36325923 -0.57787759 4.25757043 -2.375 7 C-2.81585938 7.680625 -3.25671875 8.36125 -3.7109375 9.0625 C-4.80636017 10.70895346 -5.9030448 12.3545672 -7 14 C-6.4140625 7.84765625 -6.4140625 7.84765625 -6 6 C-5.34 5.67 -4.68 5.34 -4 5 C-3.7834375 4.01 -3.7834375 4.01 -3.5625 3 C-3.376875 2.34 -3.19125 1.68 -3 1 C-2.01 0.67 -1.02 0.34 0 0 Z " fill="#24A0E2" transform="translate(99,140)"/>
<path d="M0 0 C1.32 0 2.64 0 4 0 C4 0.66 4 1.32 4 2 C5.65 1.67 7.3 1.34 9 1 C9 2.98 9 4.96 9 7 C7.4972763 6.02501855 5.99788037 5.04490611 4.5 4.0625 C3.6646875 3.51722656 2.829375 2.97195312 1.96875 2.41015625 C1.3190625 1.94480469 0.669375 1.47945312 0 1 C0 0.67 0 0.34 0 0 Z " fill="#1FA3E7" transform="translate(183,221)"/>
<path d="M0 0 C0 0.66 0 1.32 0 2 C-1.32 2 -2.64 2 -4 2 C-4 2.99 -4 3.98 -4 5 C-6.64 4.34 -9.28 3.68 -12 3 C-7.80491562 0.75263337 -4.79167039 0 0 0 Z " fill="#25A2DE" transform="translate(160,199)"/>
<path d="M0 0 C3.7726764 0.53895377 5.68212991 1.99535358 8 5 C7.60546875 7.13671875 7.60546875 7.13671875 7 9 C5.83037314 7.69013727 4.66437056 6.3770374 3.5 5.0625 C2.8503125 4.33160156 2.200625 3.60070312 1.53125 2.84765625 C0 1 0 1 0 0 Z " fill="#1EA5E9" transform="translate(82,197)"/>
<path d="M0 0 C-0.33 0.99 -0.66 1.98 -1 3 C-6.41538462 4.23076923 -6.41538462 4.23076923 -9.375 3.0625 C-9.91125 2.711875 -10.4475 2.36125 -11 2 C-7.12315913 0.80712589 -4.08378077 0 0 0 Z " fill="#19A8F2" transform="translate(135,46)"/>
<path d="M0 0 C0 0.99 0 1.98 0 3 C-0.763125 3.2475 -1.52625 3.495 -2.3125 3.75 C-5.2364045 5.10995558 -6.30004356 6.31585826 -8 9 C-8.66 8.67 -9.32 8.34 -10 8 C-3.56521739 0 -3.56521739 0 0 0 Z " fill="#269BDD" transform="translate(44,65)"/>
<path d="M0 0 C0.77772405 2.33317216 1.42415568 4.61435923 2 7 C-1.36591866 5.55746343 -3.51047079 3.66735273 -6 1 C-4.7934375 1.0309375 -4.7934375 1.0309375 -3.5625 1.0625 C-1.06645115 1.29633621 -1.06645115 1.29633621 0 0 Z " fill="#1EA8E9" transform="translate(96,205)"/>
<path d="M0 0 C2 0 2 0 4.1875 1.625 C6 4 6 4 5.75 7.25 C5.5025 8.1575 5.255 9.065 5 10 C3 9 3 9 2.1484375 6.93359375 C1.89320312 6.10988281 1.63796875 5.28617187 1.375 4.4375 C1.11460938 3.61121094 0.85421875 2.78492187 0.5859375 1.93359375 C0.39257812 1.29550781 0.19921875 0.65742187 0 0 Z " fill="#14A9F2" transform="translate(30,119)"/>
<path d="M0 0 C0.33 0 0.66 0 1 0 C1.33 4.62 1.66 9.24 2 14 C-1 10 -1 10 -1.07421875 7.421875 C-0.94660156 6.54015625 -0.81898437 5.6584375 -0.6875 4.75 C-0.56761719 3.85796875 -0.44773437 2.9659375 -0.32421875 2.046875 C-0.21722656 1.37140625 -0.11023438 0.6959375 0 0 Z " fill="#12A0EE" transform="translate(25,97)"/>
<path d="M0 0 C1.32 0 2.64 0 4 0 C4.12375 0.639375 4.2475 1.27875 4.375 1.9375 C4.684375 2.9584375 4.684375 2.9584375 5 4 C5.66 4.33 6.32 4.66 7 5 C6.67 5.99 6.34 6.98 6 8 C4.02 5.36 2.04 2.72 0 0 Z " fill="#24A0E5" transform="translate(192,228)"/>
<path d="M0 0 C2.69504819 2.69504819 5 6.08360477 5 10 C2 9 2 9 0.8125 6.6875 C0 4 0 4 0 0 Z " fill="#229EDB" transform="translate(93,178)"/>
<path d="M0 0 C3.36591866 1.44253657 5.51047079 3.33264727 8 6 C2.25 4.125 2.25 4.125 0 3 C0 2.01 0 1.02 0 0 Z " fill="#20A0E7" transform="translate(197,64)"/>
</svg>
